<svg width="1339" height="458" viewBox="0 0 1339 458" fill="none" xmlns="http://www.w3.org/2000/svg">
<g clip-path="url(#clip0_0_1)">
<path d="M544.131 194.878C564.992 186.152 575.558 170.316 575.558 145.485C575.558 117.853 562.782 102.286 540.735 102.286C536.368 102.286 533.888 103.202 532.649 103.525V252.35C532.649 284.991 546.341 297.433 568.712 302.981L568.389 305.459C547.527 305.459 527.635 301.742 508.391 299.265C488.499 301.742 468.877 305.459 448.393 305.459L448.07 302.981C470.171 297.38 483.54 284.937 483.54 252.35V148.878C483.54 111.874 470.764 98.8392 447.153 92.9681L447.477 90.8136C466.775 91.46 486.343 93.2913 504.078 95.769C521.167 92.3756 532.379 90.8136 549.198 90.8136C608.926 90.8136 626.931 112.251 626.931 139.291C626.931 164.445 606.392 185.613 575.935 194.931C602.673 198.325 619.492 217.608 628.818 236.891L663.318 307.721C677.333 336.323 691.295 364.924 712.75 364.924C717.709 364.924 720.836 364.601 726.118 361.208L727.682 363.685C712.426 374.889 698.734 378.929 678.519 378.929C648.332 378.929 630.327 361.854 613.185 325.766L579.601 254.289C567.149 228.165 555.99 204.25 543.861 196.817L544.185 194.931L544.131 194.878Z" fill="#E27253"/>
<path d="M737.87 305.513C691.511 305.513 659.167 275.08 659.167 232.151C659.167 184.913 691.834 149.201 741.913 149.201C789.189 149.201 821.533 179.634 821.533 224.071C821.533 268.509 788.866 305.513 737.87 305.513ZM737.547 159.435C720.458 159.435 713.289 187.714 713.289 222.509C713.289 273.141 726.981 295.225 742.506 295.225C760.565 295.225 767.411 265.708 767.411 232.474C767.411 180.604 753.719 159.435 737.547 159.435Z" fill="#E27253"/>
<path d="M899.913 240.23C899.913 279.066 904.279 288.061 914.198 288.061C928.806 288.061 945.625 269.748 946.542 230.266V200.425C946.542 173.063 936.299 167.461 924.17 166.545L924.494 164.068C949.992 163.745 973.656 150.71 981.742 150.71C989.828 150.71 994.788 152.595 994.788 170.585V265.062C994.788 285.26 1006.59 291.185 1019.96 292.101V295.225C999.1 299.588 973.603 305.459 959.641 305.459C951.231 305.459 947.188 303.574 947.188 285.583V273.787H945.949C935.059 298.026 918.888 305.459 898.349 305.459C871.935 305.459 851.99 292.101 851.99 242.708V200.425C851.99 173.063 841.748 167.461 829.619 166.545L829.942 164.068C855.116 163.745 878.781 150.71 886.867 150.71C895.6 150.71 899.913 152.595 899.913 170.585V240.177V240.23Z" fill="#E27253"/>
<path d="M1093.98 237.753V261.668C1093.98 286.553 1102.06 298.672 1118.88 302.981L1118.56 305.459C1101.14 305.459 1084.97 301.742 1068.48 299.265C1051.66 301.742 1038.02 305.459 1020.29 305.459L1019.96 302.981C1036.78 298.618 1046.38 286.499 1046.38 261.668V200.425C1046.38 173.063 1036.13 167.461 1024.01 166.545L1024.33 163.745C1049.83 163.421 1073.49 150.71 1081.58 150.71C1089.66 150.71 1094.03 152.595 1094.03 170.585V191.107C1103.03 165.953 1120.17 150.386 1136.35 150.386C1150.63 150.386 1160.93 154.103 1158.12 167.192L1147.56 213.784H1143.52C1143.52 187.067 1133.54 172.147 1123.62 172.147C1109.02 172.147 1094.41 196.386 1094.41 237.699H1094.08L1093.98 237.753Z" fill="#E27253"/>
<path d="M1297.36 203.873C1297.36 208.828 1296.45 216.315 1294.88 221.271L1215.26 231.505C1219.31 268.778 1237.64 283.106 1257.85 283.106C1272.14 283.106 1290.84 275.673 1299.2 264.146L1302 266.031C1286.74 291.832 1263.73 305.782 1234.19 305.782C1193.11 305.782 1163.57 275.026 1163.57 232.151C1163.57 185.829 1196.56 149.794 1241.62 149.794C1276.12 149.794 1297.31 171.878 1297.31 203.873H1297.36ZM1214.62 220.032L1248.2 215.669C1252.57 205.435 1253.16 196.386 1253.16 188.953C1253.16 166.869 1245.72 157.873 1236.34 157.873C1222.33 157.873 1214.56 186.475 1214.56 216.315V220.032H1214.62Z" fill="#E27253"/>
<path d="M378.207 213.945C372.601 201.126 410.766 172.47 406.723 149.794C402.626 127.118 393.247 142.415 382.142 143.115C387.155 93.2913 395.295 80.2564 378.369 73.8467C361.442 67.4369 352.817 91.9448 352.925 76.4321C353.033 60.9195 353.895 26.3392 342.143 15.8359C330.392 5.3325 324.193 14.8663 319.233 23.8076C288.507 -21.276 271.688 9.31839 266.405 21.0606C261.122 32.8028 274.437 55.6409 265.489 59.519C246.352 49.9852 230.126 74.1699 242.902 89.9518C255.678 105.734 262.632 131.965 262.632 131.965C262.632 131.965 254.168 124.37 244.627 132.773C235.139 141.176 231.959 154.049 247.969 174.517C263.979 194.985 259.613 218.901 259.613 218.901C259.613 218.901 254.168 211.037 243.333 214.807C220.962 239.53 241.608 258.652 237.457 277.773C233.307 296.895 220.207 316.986 220.207 316.986C220.207 316.986 218.051 294.363 202.688 295.71C180.424 299.049 191.529 346.072 167.271 390.132C156.921 408.931 143.93 420.888 130.615 428.483C104.848 440.064 80.8055 443.026 60.8601 436.724C42.9093 431.015 29.4327 418.141 23.0178 400.42C15.2014 378.875 19.5678 356.952 36.0093 335.192C43.8257 324.796 59.8898 322.641 71.3179 322.534C75.4687 323.18 79.7812 323.396 84.2555 323.18C103.877 322.318 129.806 318.44 143.067 295.71C146.356 290.108 147.919 288.923 141.288 282.89C166.894 258.167 169.913 217.877 163.067 209.475C155.25 199.941 114.605 195.847 85.2258 217.285C80.3203 209.905 78.7031 211.306 74.5523 212.706C51.2648 220.355 44.7421 238.992 38.6507 255.312C17.735 311.007 -12.9916 354.152 6.03735 406.614C14.4467 429.722 31.9663 446.581 55.4156 454.014C85.1719 463.44 121.451 456.384 158.862 434.139C166.732 432.361 176.92 430.691 190.613 429.237C245.489 423.366 285.38 428.752 305.972 410.87C326.565 392.987 290.07 377.798 296.862 370.795C355.243 353.236 368.773 331.475 370.121 319.086C371.469 306.698 343.329 305.782 349.421 296.464C355.512 287.146 386.347 270.071 397.451 244.593C408.556 219.116 394.487 209.313 378.261 213.999L378.207 213.945Z" fill="#C54E32"/>
</g>
<path d="M655.15 103.755L660.13 102.51V49.39L655.15 48.145V46.9H699.555V61.84H697.065C696.014 61.01 695.101 59.9587 694.326 58.686C692.555 55.698 691.67 52.461 691.67 48.975H673.825V75.12H683.37C683.757 73.0173 684.477 71.053 685.528 69.227C685.971 68.397 686.496 67.5947 687.105 66.82H689.595V85.495H687.105C686.496 84.7203 685.971 83.918 685.528 83.088C684.477 81.262 683.757 79.2977 683.37 77.195H673.825V102.925H693.33C693.33 99.439 694.215 96.202 695.986 93.214C696.761 91.9413 697.674 90.89 698.725 90.06H701.215V105H655.15V103.755ZM724.831 106.245C721.566 106.245 718.661 105.415 716.116 103.755C713.571 102.04 711.551 99.5497 710.057 96.285C708.563 92.965 707.816 88.9533 707.816 84.25C707.816 77.1673 709.448 71.7447 712.713 67.982C716.033 64.164 720.487 62.255 726.076 62.255C728.732 62.255 731.056 62.8083 733.048 63.915C733.878 64.3023 734.736 64.8557 735.621 65.575V49.39L730.641 48.145V46.9H741.431C746.411 46.9 748.901 49.39 748.901 54.37V102.51L753.881 103.755V105H746.411C743.091 105 740.518 103.976 738.692 101.929C737.917 101.099 737.309 100.048 736.866 98.775C736.147 100.158 735.234 101.403 734.127 102.51C731.637 105 728.538 106.245 724.831 106.245ZM728.151 103.34C730.198 103.34 732.052 102.233 733.712 100.02C734.321 99.19 734.957 98.0833 735.621 96.7V68.065C735.012 67.4563 734.376 66.903 733.712 66.405C732.218 65.2983 730.779 64.745 729.396 64.745C727.017 64.745 725.163 66.1283 723.835 68.895C722.562 71.6617 721.926 76.78 721.926 84.25C721.926 91.388 722.507 96.368 723.669 99.19C724.886 101.957 726.38 103.34 728.151 103.34ZM779.206 106.245C776.107 106.245 773.313 105.609 770.823 104.336C768.388 103.008 766.479 101.293 765.096 99.19C763.712 97.0873 763.021 94.874 763.021 92.55V65.99L758.041 64.745V63.5H768.831C773.811 63.5 776.301 65.99 776.301 70.97V92.55C776.301 96.036 776.909 98.7197 778.127 100.601C779.399 102.427 780.866 103.34 782.526 103.34C784.573 103.34 786.427 102.233 788.087 100.02C788.695 99.19 789.332 98.0833 789.996 96.7V65.99L785.016 64.745V63.5H808.256V64.745L803.276 65.99V105.415H802.446C798.406 105.415 795.335 104.308 793.233 102.095C792.292 101.099 791.628 99.9923 791.241 98.775C790.466 100.158 789.553 101.403 788.502 102.51C786.012 105 782.913 106.245 779.206 106.245ZM835.678 106.245C828.596 106.245 823.09 104.308 819.161 100.435C815.233 96.5063 813.268 91.1113 813.268 84.25C813.268 77.3887 815.233 72.0213 819.161 68.148C823.09 64.2193 828.596 62.255 835.678 62.255C840.769 62.255 844.587 63.1403 847.132 64.911C849.733 66.6817 851.033 68.8397 851.033 71.385C851.033 73.2663 850.452 74.788 849.29 75.95C848.184 77.0567 846.69 77.61 844.808 77.61C844.034 77.61 843.259 77.5547 842.484 77.444L841.488 77.195V64.745L840.326 64.33C839.496 64.0533 838.5 63.915 837.338 63.915C834.184 63.915 831.722 65.409 829.951 68.397C828.236 71.385 827.378 76.6693 827.378 84.25C827.378 91.6093 828.236 96.783 829.951 99.771C831.722 102.704 834.184 104.17 837.338 104.17C839.496 104.17 841.488 103.672 843.314 102.676C845.196 101.625 846.662 100.269 847.713 98.609C848.82 96.8937 849.373 95.1507 849.373 93.38H851.448C851.448 95.5933 850.784 97.696 849.456 99.688C848.128 101.68 846.275 103.285 843.895 104.502C841.516 105.664 838.777 106.245 835.678 106.245ZM873.466 106.245C868.541 106.245 864.751 105.194 862.095 103.091C859.439 100.988 858.111 98.3047 858.111 95.04C858.111 92.882 858.581 90.7517 859.522 88.649C859.909 87.653 860.407 86.74 861.016 85.91C863.285 85.3567 865.747 84.8587 868.403 84.416C874.379 83.42 879.663 82.8113 884.256 82.59V80.1C884.256 73.958 883.509 69.725 882.015 67.401C880.521 65.077 878.225 63.915 875.126 63.915C873.964 63.915 872.968 64.0533 872.138 64.33L870.976 64.745V77.195L869.897 77.444C869.012 77.5547 868.265 77.61 867.656 77.61C865.775 77.61 864.253 77.0567 863.091 75.95C861.984 74.788 861.431 73.2663 861.431 71.385C861.431 68.8397 862.704 66.6817 865.249 64.911C867.85 63.1403 871.695 62.255 876.786 62.255C881.102 62.255 884.809 63.0297 887.908 64.579C891.062 66.073 893.441 68.1757 895.046 70.887C896.706 73.543 897.536 76.614 897.536 80.1V102.51L902.516 103.755V105H895.046C891.726 105 889.153 103.976 887.327 101.929C886.552 101.099 885.944 100.048 885.501 98.775C884.726 100.158 883.813 101.403 882.762 102.51C880.272 105 877.173 106.245 873.466 106.245ZM876.786 103.34C878.833 103.34 880.687 102.233 882.347 100.02C882.956 99.19 883.592 98.0833 884.256 96.7V84.665C881.711 84.665 879.276 84.8033 876.952 85.08C875.237 85.3013 874.075 85.4397 873.466 85.495C873.189 86.1037 872.913 86.9337 872.636 87.985C872.083 90.0877 871.806 92.1627 871.806 94.21C871.806 97.3087 872.276 99.605 873.217 101.099C874.158 102.593 875.347 103.34 876.786 103.34ZM929.945 106.245C922.862 106.245 917.357 104.308 913.428 100.435C909.499 96.5063 907.535 91.1113 907.535 84.25C907.535 77.3887 909.499 72.0213 913.428 68.148C917.357 64.2193 922.862 62.255 929.945 62.255C935.036 62.255 938.854 63.1403 941.399 64.911C944 66.6817 945.3 68.8397 945.3 71.385C945.3 73.2663 944.719 74.788 943.557 75.95C942.45 77.0567 940.956 77.61 939.075 77.61C938.3 77.61 937.526 77.5547 936.751 77.444L935.755 77.195V64.745L934.593 64.33C933.763 64.0533 932.767 63.915 931.605 63.915C928.451 63.915 925.989 65.409 924.218 68.397C922.503 71.385 921.645 76.6693 921.645 84.25C921.645 91.6093 922.503 96.783 924.218 99.771C925.989 102.704 928.451 104.17 931.605 104.17C933.763 104.17 935.755 103.672 937.581 102.676C939.462 101.625 940.929 100.269 941.98 98.609C943.087 96.8937 943.64 95.1507 943.64 93.38H945.715C945.715 95.5933 945.051 97.696 943.723 99.688C942.395 101.68 940.541 103.285 938.162 104.502C935.783 105.664 933.044 106.245 929.945 106.245ZM951.548 103.755L956.528 102.51V65.99L951.548 64.745V63.5H962.338C967.318 63.5 969.808 65.99 969.808 70.97V102.51L974.788 103.755V105H951.548V103.755ZM962.338 58.52C960.678 58.52 959.294 57.9667 958.188 56.86C957.081 55.7533 956.528 54.37 956.528 52.71C956.528 51.05 957.081 49.6667 958.188 48.56C959.294 47.4533 960.678 46.9 962.338 46.9C963.998 46.9 965.381 47.4533 966.488 48.56C967.594 49.6667 968.148 51.05 968.148 52.71C968.148 54.37 967.594 55.7533 966.488 56.86C965.381 57.9667 963.998 58.52 962.338 58.52ZM1001.75 106.245C994.888 106.245 989.493 104.308 985.565 100.435C981.691 96.5063 979.755 91.1113 979.755 84.25C979.755 77.3887 981.691 72.0213 985.565 68.148C989.493 64.2193 994.888 62.255 1001.75 62.255C1008.61 62.255 1013.98 64.2193 1017.85 68.148C1021.78 72.0213 1023.74 77.3887 1023.74 84.25C1023.74 91.1113 1021.78 96.5063 1017.85 100.435C1013.98 104.308 1008.61 106.245 1001.75 106.245ZM1001.75 104.585C1003.96 104.585 1005.82 103.036 1007.31 99.937C1008.86 96.8383 1009.63 91.6093 1009.63 84.25C1009.63 76.8907 1008.86 71.6617 1007.31 68.563C1005.82 65.4643 1003.96 63.915 1001.75 63.915C999.536 63.915 997.655 65.4643 996.106 68.563C994.612 71.6617 993.865 76.8907 993.865 84.25C993.865 91.6093 994.612 96.8383 996.106 99.937C997.655 103.036 999.536 104.585 1001.75 104.585ZM999.426 59.35L1002.75 46.9H1013.54L1002.33 59.35H999.426ZM1030.41 103.755L1035.39 102.51V65.99L1030.41 64.745V63.5H1037.88C1041.15 63.5 1043.72 64.5513 1045.6 66.654C1046.32 67.484 1046.93 68.5077 1047.43 69.725C1048.2 68.2863 1049.12 67.0413 1050.17 65.99C1052.66 63.5 1055.76 62.255 1059.46 62.255C1062.56 62.255 1065.33 62.919 1067.76 64.247C1070.25 65.5197 1072.19 67.2073 1073.57 69.31C1074.96 71.4127 1075.65 73.626 1075.65 75.95V102.51L1080.63 103.755V105H1069.84C1064.86 105 1062.37 102.51 1062.37 97.53V75.95C1062.37 72.464 1061.73 69.808 1060.46 67.982C1059.24 66.1007 1057.8 65.16 1056.14 65.16C1054.04 65.16 1052.16 66.2667 1050.5 68.48C1049.78 69.4207 1049.17 70.5273 1048.67 71.8V102.51L1053.65 103.755V105H1030.41V103.755ZM1108.04 49.39L1103.89 48.145V46.9H1113.85C1116.73 46.9 1119.08 47.564 1120.91 48.892C1122.74 50.1647 1124.12 51.8523 1125.06 53.955L1139.75 87.404L1153.28 50.635L1147.05 48.145V46.9H1162.41V48.145L1155.77 50.635L1135.43 105.83H1132.94L1108.04 49.39ZM1161.56 103.755L1166.54 102.51V65.99L1161.56 64.745V63.5H1172.35C1177.33 63.5 1179.82 65.99 1179.82 70.97V102.51L1184.8 103.755V105H1161.56V103.755ZM1172.35 58.52C1170.69 58.52 1169.31 57.9667 1168.2 56.86C1167.09 55.7533 1166.54 54.37 1166.54 52.71C1166.54 51.05 1167.09 49.6667 1168.2 48.56C1169.31 47.4533 1170.69 46.9 1172.35 46.9C1174.01 46.9 1175.39 47.4533 1176.5 48.56C1177.61 49.6667 1178.16 51.05 1178.16 52.71C1178.16 54.37 1177.61 55.7533 1176.5 56.86C1175.39 57.9667 1174.01 58.52 1172.35 58.52ZM1188.13 65.99L1183.98 64.745V63.5H1194.35C1197.23 63.5 1199.5 64.1087 1201.16 65.326C1202.87 66.488 1204.34 68.231 1205.56 70.555L1215.43 89.728L1224.65 67.235L1218.42 64.745V63.5H1233.78V64.745L1227.14 67.235L1211.37 105.83H1208.88L1188.13 65.99ZM1248.26 106.245C1243.34 106.245 1239.55 105.194 1236.89 103.091C1234.24 100.988 1232.91 98.3047 1232.91 95.04C1232.91 92.882 1233.38 90.7517 1234.32 88.649C1234.71 87.653 1235.2 86.74 1235.81 85.91C1238.08 85.3567 1240.54 84.8587 1243.2 84.416C1249.18 83.42 1254.46 82.8113 1259.05 82.59V80.1C1259.05 73.958 1258.31 69.725 1256.81 67.401C1255.32 65.077 1253.02 63.915 1249.92 63.915C1248.76 63.915 1247.76 64.0533 1246.93 64.33L1245.77 64.745V77.195L1244.69 77.444C1243.81 77.5547 1243.06 77.61 1242.45 77.61C1240.57 77.61 1239.05 77.0567 1237.89 75.95C1236.78 74.788 1236.23 73.2663 1236.23 71.385C1236.23 68.8397 1237.5 66.6817 1240.05 64.911C1242.65 63.1403 1246.49 62.255 1251.58 62.255C1255.9 62.255 1259.61 63.0297 1262.7 64.579C1265.86 66.073 1268.24 68.1757 1269.84 70.887C1271.5 73.543 1272.33 76.614 1272.33 80.1V102.51L1277.31 103.755V105H1269.84C1266.52 105 1263.95 103.976 1262.12 101.929C1261.35 101.099 1260.74 100.048 1260.3 98.775C1259.52 100.158 1258.61 101.403 1257.56 102.51C1255.07 105 1251.97 106.245 1248.26 106.245ZM1251.58 103.34C1253.63 103.34 1255.48 102.233 1257.14 100.02C1257.75 99.19 1258.39 98.0833 1259.05 96.7V84.665C1256.51 84.665 1254.07 84.8033 1251.75 85.08C1250.03 85.3013 1248.87 85.4397 1248.26 85.495C1247.99 86.1037 1247.71 86.9337 1247.43 87.985C1246.88 90.0877 1246.6 92.1627 1246.6 94.21C1246.6 97.3087 1247.07 99.605 1248.01 101.099C1248.95 102.593 1250.14 103.34 1251.58 103.34Z" fill="#E27253"/>
<path d="M911.335 404.245C908.07 404.245 905.165 403.415 902.62 401.755C900.075 400.04 898.055 397.55 896.561 394.285C895.067 390.965 894.32 386.953 894.32 382.25C894.32 375.167 895.952 369.745 899.217 365.982C902.537 362.164 906.991 360.255 912.58 360.255C915.236 360.255 917.56 360.808 919.552 361.915C920.382 362.302 921.24 362.856 922.125 363.575V347.39L917.145 346.145V344.9H927.935C932.915 344.9 935.405 347.39 935.405 352.37V400.51L940.385 401.755V403H932.915C929.595 403 927.022 401.976 925.196 399.929C924.421 399.099 923.813 398.048 923.37 396.775C922.651 398.158 921.738 399.403 920.631 400.51C918.141 403 915.042 404.245 911.335 404.245ZM914.655 401.34C916.702 401.34 918.556 400.233 920.216 398.02C920.825 397.19 921.461 396.083 922.125 394.7V366.065C921.516 365.456 920.88 364.903 920.216 364.405C918.722 363.298 917.283 362.745 915.9 362.745C913.521 362.745 911.667 364.128 910.339 366.895C909.066 369.662 908.43 374.78 908.43 382.25C908.43 389.388 909.011 394.368 910.173 397.19C911.39 399.957 912.884 401.34 914.655 401.34ZM968.2 404.245C961.117 404.245 955.611 402.308 951.683 398.435C947.754 394.506 945.79 389.111 945.79 382.25C945.79 377.768 946.647 373.867 948.363 370.547C950.078 367.227 952.457 364.682 955.501 362.911C958.599 361.14 962.141 360.255 966.125 360.255C970.109 360.255 973.595 361.002 976.583 362.496C979.626 363.99 981.95 366.01 983.555 368.555C985.215 371.045 986.045 373.812 986.045 376.855C986.045 378.238 985.906 379.428 985.63 380.424L985.215 381.835C982.835 382.333 980.262 382.748 977.496 383.08C971.686 383.91 965.82 384.325 959.9 384.325C959.9 390.744 960.785 395.336 962.556 398.103C964.326 400.814 966.761 402.17 969.86 402.17C972.018 402.17 974.01 401.672 975.836 400.676C977.717 399.625 979.183 398.269 980.235 396.609C981.341 394.894 981.895 393.151 981.895 391.38H983.97C983.97 393.593 983.306 395.696 981.978 397.688C980.65 399.68 978.796 401.285 976.417 402.502C974.037 403.664 971.298 404.245 968.2 404.245ZM959.9 382.25C963.441 382.25 966.318 382.112 968.532 381.835C969.472 381.78 970.468 381.641 971.52 381.42C971.575 381.143 971.713 380.535 971.935 379.594C972.211 378.211 972.35 376.744 972.35 375.195C972.35 370.602 971.741 367.255 970.524 365.152C969.306 362.994 967.84 361.915 966.125 361.915C961.975 361.915 959.9 368.693 959.9 382.25ZM1011.74 404.245C1008.31 404.245 1005.24 403.498 1002.53 402.004C1001.2 401.285 1000.12 400.51 999.289 399.68C998.404 400.897 997.435 401.838 996.384 402.502C995.886 402.834 995.333 403.138 994.724 403.415H992.649V389.305H995.969C996.688 391.629 997.74 393.787 999.123 395.779C1002.06 400.04 1005.71 402.17 1010.08 402.17C1012.4 402.17 1014.15 401.617 1015.31 400.51C1016.53 399.348 1017.13 397.688 1017.13 395.53C1017.13 393.704 1016.3 392.182 1014.64 390.965C1013.04 389.692 1010.49 388.143 1007.01 386.317C1004.02 384.823 1001.59 383.495 999.704 382.333C997.878 381.116 996.301 379.622 994.973 377.851C993.7 376.025 993.064 373.895 993.064 371.46C993.064 368.14 994.475 365.456 997.297 363.409C1000.17 361.306 1004.57 360.255 1010.49 360.255C1013.43 360.255 1016.14 361.03 1018.63 362.579C1019.85 363.298 1020.9 364.045 1021.78 364.82C1022.5 363.824 1023.47 362.883 1024.69 361.998C1025.63 361.445 1026.18 361.14 1026.35 361.085H1028.42V375.195H1025.1C1024.27 372.816 1023.25 370.685 1022.03 368.804C1019.26 364.488 1015.97 362.33 1012.15 362.33C1010.66 362.33 1009.39 362.883 1008.34 363.99C1007.28 365.097 1006.76 366.48 1006.76 368.14C1006.76 370.243 1007.64 372.013 1009.42 373.452C1011.19 374.835 1013.87 376.44 1017.47 378.266C1020.4 379.76 1022.72 381.088 1024.44 382.25C1026.21 383.357 1027.7 384.74 1028.92 386.4C1030.19 388.06 1030.83 389.997 1030.83 392.21C1030.83 400.233 1024.47 404.245 1011.74 404.245ZM1054.07 404.245C1050.81 404.245 1047.9 403.415 1045.36 401.755C1042.81 400.04 1040.79 397.55 1039.3 394.285C1037.8 390.965 1037.06 386.953 1037.06 382.25C1037.06 375.167 1038.69 369.745 1041.95 365.982C1045.27 362.164 1049.73 360.255 1055.32 360.255C1057.97 360.255 1060.3 360.808 1062.29 361.915C1063.12 362.302 1063.98 362.856 1064.86 363.575V347.39L1059.88 346.145V344.9H1070.67C1075.65 344.9 1078.14 347.39 1078.14 352.37V400.51L1083.12 401.755V403H1075.65C1072.33 403 1069.76 401.976 1067.93 399.929C1067.16 399.099 1066.55 398.048 1066.11 396.775C1065.39 398.158 1064.47 399.403 1063.37 400.51C1060.88 403 1057.78 404.245 1054.07 404.245ZM1057.39 401.34C1059.44 401.34 1061.29 400.233 1062.95 398.02C1063.56 397.19 1064.2 396.083 1064.86 394.7V366.065C1064.25 365.456 1063.62 364.903 1062.95 364.405C1061.46 363.298 1060.02 362.745 1058.64 362.745C1056.26 362.745 1054.4 364.128 1053.08 366.895C1051.8 369.662 1051.17 374.78 1051.17 382.25C1051.17 389.388 1051.75 394.368 1052.91 397.19C1054.13 399.957 1055.62 401.34 1057.39 401.34ZM1110.94 404.245C1103.85 404.245 1098.35 402.308 1094.42 398.435C1090.49 394.506 1088.53 389.111 1088.53 382.25C1088.53 377.768 1089.38 373.867 1091.1 370.547C1092.82 367.227 1095.19 364.682 1098.24 362.911C1101.34 361.14 1104.88 360.255 1108.86 360.255C1112.85 360.255 1116.33 361.002 1119.32 362.496C1122.36 363.99 1124.69 366.01 1126.29 368.555C1127.95 371.045 1128.78 373.812 1128.78 376.855C1128.78 378.238 1128.64 379.428 1128.37 380.424L1127.95 381.835C1125.57 382.333 1123 382.748 1120.23 383.08C1114.42 383.91 1108.56 384.325 1102.64 384.325C1102.64 390.744 1103.52 395.336 1105.29 398.103C1107.06 400.814 1109.5 402.17 1112.6 402.17C1114.76 402.17 1116.75 401.672 1118.57 400.676C1120.45 399.625 1121.92 398.269 1122.97 396.609C1124.08 394.894 1124.63 393.151 1124.63 391.38H1126.71C1126.71 393.593 1126.04 395.696 1124.72 397.688C1123.39 399.68 1121.53 401.285 1119.15 402.502C1116.77 403.664 1114.04 404.245 1110.94 404.245ZM1102.64 382.25C1106.18 382.25 1109.06 382.112 1111.27 381.835C1112.21 381.78 1113.21 381.641 1114.26 381.42C1114.31 381.143 1114.45 380.535 1114.67 379.594C1114.95 378.211 1115.09 376.744 1115.09 375.195C1115.09 370.602 1114.48 367.255 1113.26 365.152C1112.04 362.994 1110.58 361.915 1108.86 361.915C1104.71 361.915 1102.64 368.693 1102.64 382.25ZM1160.72 403V401.755L1166.53 400.095V354.528L1157.82 360.67L1156.16 358.595L1171.27 344.9H1180.23V400.095L1186.04 401.755V403H1160.72ZM1210.57 404.245C1207.3 404.245 1204.42 403.719 1201.93 402.668C1199.5 401.561 1197.62 400.178 1196.29 398.518C1195.02 396.858 1194.38 395.17 1194.38 393.455C1194.38 391.574 1194.93 390.08 1196.04 388.973C1197.2 387.811 1198.72 387.23 1200.61 387.23C1201.05 387.23 1201.49 387.285 1201.93 387.396C1202.38 387.451 1202.68 387.479 1202.85 387.479L1203.93 387.645V400.925L1205.5 401.589C1206.5 401.976 1207.63 402.17 1208.91 402.17C1211.62 402.17 1213.83 401.451 1215.55 400.012C1217.26 398.573 1218.59 395.917 1219.53 392.044C1220.47 388.171 1220.94 382.693 1220.94 375.61C1220.44 376.44 1219.67 377.27 1218.62 378.1C1216.51 379.76 1214.11 380.59 1211.4 380.59C1207.36 380.59 1203.82 379.843 1200.77 378.349C1197.78 376.8 1195.49 374.669 1193.88 371.958C1192.28 369.247 1191.48 366.176 1191.48 362.745C1191.48 356.824 1193.3 352.176 1196.95 348.801C1200.66 345.37 1205.89 343.655 1212.64 343.655C1219.61 343.655 1225.09 346.145 1229.08 351.125C1233.06 356.105 1235.05 363.713 1235.05 373.95C1235.05 383.91 1232.87 391.463 1228.49 396.609C1224.18 401.7 1218.2 404.245 1210.57 404.245ZM1213.06 378.515C1215.32 378.515 1217.12 377.408 1218.45 375.195C1219.83 372.982 1220.53 369.523 1220.53 364.82C1220.53 357.793 1219.75 352.785 1218.2 349.797C1216.71 346.809 1214.85 345.315 1212.64 345.315C1211.53 345.315 1210.43 345.868 1209.32 346.975C1208.27 348.082 1207.38 349.88 1206.67 352.37C1205.95 354.86 1205.59 358.042 1205.59 361.915C1205.59 365.788 1205.95 368.97 1206.67 371.46C1207.44 373.95 1208.38 375.748 1209.49 376.855C1210.65 377.962 1211.84 378.515 1213.06 378.515ZM1262.04 404.245C1258.77 404.245 1255.89 403.719 1253.4 402.668C1250.97 401.561 1249.09 400.178 1247.76 398.518C1246.49 396.858 1245.85 395.17 1245.85 393.455C1245.85 391.574 1246.4 390.08 1247.51 388.973C1248.67 387.811 1250.19 387.23 1252.08 387.23C1252.52 387.23 1252.96 387.285 1253.4 387.396C1253.85 387.451 1254.15 387.479 1254.32 387.479L1255.4 387.645V400.925L1256.97 401.589C1257.97 401.976 1259.1 402.17 1260.38 402.17C1263.09 402.17 1265.3 401.451 1267.02 400.012C1268.73 398.573 1270.06 395.917 1271 392.044C1271.94 388.171 1272.41 382.693 1272.41 375.61C1271.91 376.44 1271.14 377.27 1270.09 378.1C1267.98 379.76 1265.58 380.59 1262.87 380.59C1258.83 380.59 1255.29 379.843 1252.24 378.349C1249.25 376.8 1246.96 374.669 1245.35 371.958C1243.75 369.247 1242.95 366.176 1242.95 362.745C1242.95 356.824 1244.77 352.176 1248.42 348.801C1252.13 345.37 1257.36 343.655 1264.11 343.655C1271.08 343.655 1276.56 346.145 1280.54 351.125C1284.53 356.105 1286.52 363.713 1286.52 373.95C1286.52 383.91 1284.34 391.463 1279.96 396.609C1275.65 401.7 1269.67 404.245 1262.04 404.245ZM1264.53 378.515C1266.79 378.515 1268.59 377.408 1269.92 375.195C1271.3 372.982 1272 369.523 1272 364.82C1272 357.793 1271.22 352.785 1269.67 349.797C1268.18 346.809 1266.32 345.315 1264.11 345.315C1263 345.315 1261.9 345.868 1260.79 346.975C1259.74 348.082 1258.85 349.88 1258.13 352.37C1257.42 354.86 1257.06 358.042 1257.06 361.915C1257.06 365.788 1257.42 368.97 1258.13 371.46C1258.91 373.95 1259.85 375.748 1260.96 376.855C1262.12 377.962 1263.31 378.515 1264.53 378.515ZM1317.24 404.245C1310.27 404.245 1304.79 401.755 1300.81 396.775C1296.82 391.795 1294.83 384.187 1294.83 373.95C1294.83 363.99 1296.99 356.465 1301.3 351.374C1305.68 346.228 1311.68 343.655 1319.32 343.655C1322.58 343.655 1325.43 344.208 1327.86 345.315C1330.35 346.366 1332.24 347.722 1333.51 349.382C1334.84 351.042 1335.5 352.73 1335.5 354.445C1335.5 356.326 1334.92 357.848 1333.76 359.01C1332.65 360.117 1331.16 360.67 1329.28 360.67C1328.5 360.67 1327.73 360.615 1326.95 360.504L1325.96 360.255V346.975L1324.38 346.394C1323.16 345.951 1322.03 345.73 1320.98 345.73C1318.26 345.73 1316.02 346.449 1314.25 347.888C1312.54 349.327 1311.21 351.983 1310.27 355.856C1309.38 359.729 1308.94 365.207 1308.94 372.29C1309.55 371.349 1310.3 370.519 1311.18 369.8C1313.28 368.14 1315.72 367.31 1318.49 367.31C1322.52 367.31 1326.04 368.085 1329.03 369.634C1332.07 371.128 1334.39 373.231 1336 375.942C1337.6 378.653 1338.41 381.724 1338.41 385.155C1338.41 391.076 1336.55 395.751 1332.84 399.182C1329.19 402.557 1323.99 404.245 1317.24 404.245ZM1317.24 402.585C1318.35 402.585 1319.43 402.032 1320.48 400.925C1321.58 399.818 1322.5 398.02 1323.22 395.53C1323.94 393.04 1324.3 389.858 1324.3 385.985C1324.3 382.112 1323.91 378.93 1323.13 376.44C1322.41 373.95 1321.47 372.152 1320.31 371.045C1319.2 369.938 1318.04 369.385 1316.83 369.385C1314.56 369.385 1312.73 370.492 1311.35 372.705C1310.02 374.918 1309.36 378.377 1309.36 383.08C1309.36 390.107 1310.1 395.115 1311.6 398.103C1313.15 401.091 1315.03 402.585 1317.24 402.585Z" fill="#E27253"/>
<defs>
<clipPath id="clip0_0_1">
<rect width="1302" height="458" fill="white"/>
</clipPath>
</defs>
</svg>
